<?xml version="1.0" encoding="UTF-8"?> <svg xmlns="http://www.w3.org/2000/svg" width="141" height="57" viewBox="0 0 141 57" fill="none"><g clip-path="url(#clip0_698_328)"><path d="M28.5977 55.303C28.4785 54.9951 28.3704 54.7005 28.2688 54.4169C28.1695 54.1334 28.0724 53.8565 27.982 53.5884H24.9366C24.8329 53.8587 24.7314 54.1356 24.6321 54.4191C24.5328 54.7027 24.4268 54.9973 24.3165 55.303H23.6787C23.9149 54.6517 24.14 54.0448 24.3496 53.4821C24.5592 52.9195 24.7667 52.3878 24.9697 51.885C25.1727 51.3822 25.3735 50.9015 25.5722 50.4385C25.7708 49.9756 25.9804 49.5126 26.2011 49.0452H26.7395C26.9602 49.5082 27.1677 49.9711 27.3663 50.4363C27.5627 50.8993 27.7635 51.3822 27.9665 51.885C28.1695 52.3856 28.3748 52.9195 28.5844 53.4821C28.7941 54.0448 29.0236 54.6517 29.2729 55.303H28.5977ZM26.4527 49.7496C26.2276 50.2702 26.0069 50.7974 25.7928 51.3312C25.5788 51.8673 25.3581 52.4432 25.1286 53.0635H27.79C27.5605 52.4432 27.3354 51.8651 27.1169 51.329C26.8984 50.7929 26.6778 50.2657 26.4505 49.7496H26.4527Z" fill="#6D6D6D"></path><path d="M30.127 50.7974C30.3013 50.7486 30.5352 50.6955 30.8287 50.6357C31.1222 50.5758 31.4819 50.5448 31.9078 50.5448C32.2609 50.5448 32.5566 50.5958 32.7927 50.6977C33.0289 50.7996 33.2187 50.9458 33.3599 51.1363C33.5011 51.3268 33.6004 51.5527 33.6622 51.8185C33.7218 52.0844 33.7527 52.3745 33.7527 52.6935V55.303H33.1679V52.884C33.1679 52.554 33.1458 52.2726 33.0995 52.0445C33.0554 51.8163 32.9803 51.628 32.8744 51.4841C32.7685 51.3401 32.6316 51.236 32.4595 51.1717C32.2896 51.1075 32.0733 51.0765 31.8173 51.0765C31.5415 51.0765 31.3032 51.092 31.1023 51.1208C30.9015 51.1518 30.7713 51.1784 30.7117 51.2027V55.303H30.127V50.7974Z" fill="#6D6D6D"></path><path d="M37.3321 55.303V49.0452H40.9291V49.5768H37.9434V51.7521H40.6047V52.2749H37.9434V54.7669H41.1631V55.3008H37.3321V55.303Z" fill="#6D6D6D"></path><path d="M42.2885 50.7974C42.4628 50.7486 42.6968 50.6955 42.9903 50.6357C43.2838 50.5758 43.6435 50.5448 44.0694 50.5448C44.4225 50.5448 44.7182 50.5958 44.9543 50.6977C45.1904 50.7996 45.3802 50.9458 45.5214 51.1363C45.6627 51.3268 45.762 51.5527 45.8238 51.8185C45.8834 52.0844 45.9143 52.3745 45.9143 52.6935V55.303H45.3295V52.884C45.3295 52.554 45.3074 52.2726 45.261 52.0445C45.2169 51.8163 45.1419 51.628 45.036 51.4841C44.93 51.3401 44.7932 51.236 44.6233 51.1717C44.4534 51.1075 44.2371 51.0765 43.9811 51.0765C43.7053 51.0765 43.4669 51.092 43.2661 51.1208C43.0653 51.1518 42.9351 51.1784 42.8755 51.2027V55.303H42.2907V50.7974H42.2885Z" fill="#6D6D6D"></path><path d="M50.436 54.7602C50.4007 54.7913 50.3455 54.8245 50.2749 54.8644C50.202 54.9042 50.1138 54.9441 50.0101 54.9862C49.9041 55.0283 49.785 55.0637 49.6504 55.0903C49.5157 55.1169 49.3635 55.1302 49.1958 55.1302C48.9265 55.1302 48.6661 55.0881 48.4123 55.0039C48.1608 54.9197 47.9401 54.7868 47.7503 54.6074C47.5605 54.4258 47.4105 54.1932 47.2957 53.9074C47.181 53.6217 47.1258 53.2739 47.1258 52.8641C47.1258 52.534 47.1765 52.2261 47.2781 51.9426C47.3796 51.659 47.5252 51.4154 47.715 51.2072C47.9048 50.9989 48.1343 50.8372 48.4079 50.7198C48.6816 50.6024 48.9883 50.5448 49.3304 50.5448C49.7629 50.5448 50.1094 50.5736 50.3698 50.6312C50.6302 50.6888 50.8442 50.7442 51.0119 50.7974V55.0593C51.0119 55.7571 50.831 56.2555 50.4713 56.5545C50.1116 56.8513 49.5687 57.002 48.8427 57.002C48.5425 57.002 48.2711 56.9798 48.0284 56.9333C47.7856 56.889 47.5782 56.8358 47.4038 56.776L47.5208 56.2444C47.6642 56.3108 47.8606 56.3684 48.11 56.415C48.3594 56.4637 48.6087 56.4881 48.8603 56.4881C49.412 56.4881 49.8114 56.3817 50.0608 56.1669C50.3102 55.9542 50.4338 55.5865 50.4338 55.0704V54.7625L50.436 54.7602ZM50.4271 51.2027C50.3256 51.1739 50.1932 51.1451 50.0321 51.1163C49.871 51.0898 49.6393 51.0765 49.3392 51.0765C49.0876 51.0765 48.8647 51.1208 48.6683 51.2072C48.4741 51.2935 48.3064 51.4176 48.1696 51.5771C48.0306 51.7366 47.9269 51.9271 47.854 52.1464C47.7812 52.3657 47.7459 52.6093 47.7459 52.8729C47.7459 53.1808 47.7878 53.4444 47.8717 53.6637C47.9555 53.883 48.0659 54.0625 48.2005 54.202C48.3351 54.3394 48.4896 54.4413 48.6639 54.5055C48.8383 54.5697 49.0148 54.6008 49.1935 54.6008C49.4584 54.6008 49.6989 54.5609 49.9174 54.4834C50.1358 54.4058 50.3058 54.315 50.4249 54.2131V51.2072L50.4271 51.2027Z" fill="#6D6D6D"></path><path d="M53.9712 50.5271C54.278 50.5271 54.5362 50.5714 54.7502 50.6578C54.9621 50.7442 55.1364 50.866 55.2666 51.0189C55.399 51.1717 55.4939 51.3534 55.5535 51.566C55.6131 51.7765 55.644 52.0046 55.644 52.2527V55.1966C55.5844 55.2144 55.4961 55.2343 55.3836 55.2542C55.2688 55.2764 55.1386 55.2985 54.9885 55.3229C54.8385 55.3473 54.673 55.3672 54.4898 55.3827C54.3066 55.3982 54.1191 55.4049 53.9271 55.4049C53.6821 55.4049 53.4548 55.3783 53.2474 55.3229C53.04 55.2697 52.8612 55.1834 52.7067 55.066C52.5545 54.9485 52.4331 54.7979 52.347 54.6141C52.261 54.4302 52.2168 54.2065 52.2168 53.9407C52.2168 53.6748 52.2654 53.4711 52.3603 53.2916C52.4552 53.11 52.592 52.9616 52.7641 52.8442C52.9384 52.7268 53.1459 52.6404 53.3842 52.5872C53.6248 52.5318 53.8852 52.5052 54.1676 52.5052C54.2515 52.5052 54.3398 52.5097 54.4324 52.5185C54.5251 52.5274 54.6156 52.5385 54.7017 52.554C54.7877 52.5695 54.8628 52.585 54.9268 52.5983C54.9908 52.6138 55.0327 52.6271 55.057 52.6382V52.3502C55.057 52.1885 55.0459 52.029 55.0216 51.8761C54.9974 51.7233 54.9444 51.5838 54.865 51.4597C54.7833 51.3357 54.6708 51.2382 54.5229 51.1629C54.3751 51.0876 54.1831 51.0499 53.9425 51.0499C53.6005 51.0499 53.3467 51.0743 53.179 51.123C53.0113 51.1717 52.8877 51.2094 52.8105 51.2404L52.7288 50.7265C52.8303 50.6778 52.9892 50.6335 53.2011 50.5914C53.4129 50.5493 53.6711 50.5271 53.969 50.5271H53.9712ZM54.0242 54.8799C54.2515 54.8799 54.4523 54.8732 54.6222 54.8577C54.7921 54.8422 54.9378 54.8223 55.0592 54.8001V53.1565C54.993 53.1255 54.8892 53.0945 54.7436 53.0612C54.6002 53.028 54.4015 53.0125 54.15 53.0125C54.0065 53.0125 53.8565 53.0236 53.6998 53.0435C53.5431 53.0657 53.3997 53.11 53.2673 53.1787C53.1349 53.2473 53.0267 53.3426 52.9429 53.4622C52.859 53.5818 52.8171 53.7413 52.8171 53.9407C52.8171 54.1157 52.8458 54.2619 52.9031 54.3837C52.9605 54.5033 53.04 54.6008 53.1459 54.6717C53.2518 54.7448 53.3776 54.7957 53.5232 54.8289C53.6711 54.8622 53.8366 54.8777 54.022 54.8777L54.0242 54.8799Z" fill="#6D6D6D"></path><path d="M60.17 54.7602C60.1347 54.7913 60.0796 54.8245 60.0089 54.8644C59.9361 54.9042 59.8478 54.9441 59.7441 54.9862C59.6382 55.0283 59.519 55.0637 59.3844 55.0903C59.2498 55.1169 59.0975 55.1302 58.9298 55.1302C58.6606 55.1302 58.4002 55.0881 58.1464 55.0039C57.8948 54.9197 57.6742 54.7868 57.4844 54.6074C57.2946 54.4258 57.1445 54.1932 57.0298 53.9074C56.915 53.6217 56.8599 53.2739 56.8599 52.8641C56.8599 52.534 56.9106 52.2261 57.0121 51.9426C57.1136 51.659 57.2593 51.4154 57.4491 51.2072C57.6389 50.9989 57.8684 50.8372 58.142 50.7198C58.4156 50.6024 58.7224 50.5448 59.0644 50.5448C59.497 50.5448 59.8434 50.5736 60.1038 50.6312C60.3642 50.6888 60.5783 50.7442 60.746 50.7974V55.0593C60.746 55.7571 60.565 56.2555 60.2053 56.5545C59.8456 56.8513 59.3028 57.002 58.5767 57.002C58.2766 57.002 58.0052 56.9798 57.7624 56.9333C57.5197 56.8868 57.3123 56.8358 57.1379 56.776L57.2549 56.2444C57.3983 56.3108 57.5947 56.3684 57.8441 56.415C58.0935 56.4637 58.3428 56.4881 58.5944 56.4881C59.1461 56.4881 59.5455 56.3817 59.7949 56.1669C60.0442 55.9542 60.1678 55.5865 60.1678 55.0704V54.7625L60.17 54.7602ZM60.1612 51.2027C60.0597 51.1739 59.9273 51.1451 59.7662 51.1163C59.6051 51.0898 59.3734 51.0765 59.0733 51.0765C58.8217 51.0765 58.5988 51.1208 58.4024 51.2072C58.2082 51.2935 58.0405 51.4176 57.9037 51.5771C57.7646 51.7366 57.6609 51.9271 57.5881 52.1464C57.5153 52.3657 57.48 52.6093 57.48 52.8729C57.48 53.1808 57.5219 53.4444 57.6058 53.6637C57.6896 53.883 57.8 54.0625 57.9346 54.202C58.0692 54.3394 58.2237 54.4413 58.398 54.5055C58.5723 54.5697 58.7489 54.6008 58.9276 54.6008C59.1924 54.6008 59.433 54.5609 59.6514 54.4834C59.8699 54.4058 60.0398 54.315 60.159 54.2131V51.2072L60.1612 51.2027Z" fill="#6D6D6D"></path><path d="M62.0127 52.9638C62.0127 52.554 62.0723 52.1973 62.187 51.8939C62.304 51.5904 62.4563 51.3357 62.646 51.1319C62.8358 50.9281 63.0499 50.7752 63.2948 50.6755C63.5376 50.5759 63.7869 50.5271 64.0451 50.5271C64.6145 50.5271 65.0691 50.7132 65.4089 51.0876C65.7488 51.4619 65.9165 52.0356 65.9165 52.8132C65.9165 52.8619 65.9165 52.9084 65.9121 52.9571C65.9099 53.0059 65.9055 53.0502 65.8988 53.0923H62.6328C62.6505 53.6638 62.7917 54.1046 63.0565 54.4103C63.3213 54.7182 63.7406 54.871 64.3166 54.871C64.6344 54.871 64.8859 54.84 65.0713 54.7802C65.2567 54.7204 65.3913 54.6694 65.4751 54.6274L65.5833 55.1324C65.4994 55.1811 65.3427 55.2387 65.111 55.303C64.8793 55.3694 64.6079 55.4027 64.2967 55.4027C63.8885 55.4027 63.542 55.3428 63.2529 55.221C62.966 55.1014 62.7277 54.933 62.5423 54.716C62.357 54.4989 62.2223 54.2419 62.1385 53.9429C62.0546 53.646 62.0127 53.3182 62.0127 52.9638ZM65.314 52.5939C65.303 52.1065 65.1883 51.7277 64.972 51.4553C64.7557 51.185 64.4512 51.0499 64.054 51.0499C63.8443 51.0499 63.6567 51.092 63.4912 51.1762C63.3257 51.2603 63.1823 51.3733 63.0587 51.5151C62.9351 51.6568 62.8402 51.8208 62.7718 52.0068C62.7034 52.1929 62.6615 52.3901 62.6505 52.5939H65.314Z" fill="#6D6D6D"></path><path d="M67.2207 50.7974C67.3951 50.7486 67.6202 50.6955 67.9004 50.6357C68.1785 50.5758 68.5404 50.5448 68.984 50.5448C69.571 50.5448 69.9969 50.7154 70.2617 51.0587C70.2926 51.0344 70.3499 50.9945 70.436 50.9369C70.5221 50.8793 70.6324 50.8217 70.7648 50.7619C70.8972 50.7021 71.0517 50.6512 71.2282 50.6091C71.4048 50.567 71.6012 50.5448 71.8175 50.5448C72.1705 50.5448 72.4574 50.598 72.6759 50.7021C72.8944 50.8084 73.0643 50.9546 73.1835 51.1451C73.3026 51.3356 73.3843 51.5616 73.4262 51.8274C73.4681 52.0932 73.4902 52.3812 73.4902 52.6935V55.303H72.9054V52.884C72.9054 52.5761 72.8922 52.3103 72.8657 52.0844C72.8392 51.8584 72.784 51.6723 72.7046 51.5239C72.6229 51.3755 72.5082 51.2648 72.3581 51.1894C72.2081 51.1141 72.0139 51.0765 71.7733 51.0765C71.5924 51.0765 71.4291 51.0942 71.2834 51.1252C71.1378 51.1562 71.0098 51.1983 70.9016 51.247C70.7935 51.2958 70.7052 51.3445 70.6368 51.391C70.5684 51.4397 70.5177 51.4752 70.489 51.4996C70.5419 51.6568 70.5839 51.8318 70.6104 52.0268C70.6368 52.2217 70.6501 52.4277 70.6501 52.6448V55.2985H70.0653V52.8796C70.0653 52.5717 70.052 52.3059 70.0256 52.0799C69.9991 51.854 69.9439 51.6679 69.86 51.5195C69.7762 51.3711 69.657 51.2603 69.5048 51.185C69.3525 51.1097 69.1495 51.072 68.8979 51.072C68.6154 51.072 68.3771 51.0875 68.1829 51.1163C67.9887 51.1473 67.8629 51.1739 67.8099 51.1983V55.2985H67.2252V50.7929L67.2207 50.7974Z" fill="#6D6D6D"></path><path d="M74.7039 52.9638C74.7039 52.554 74.7635 52.1973 74.8783 51.8939C74.9952 51.5904 75.1475 51.3357 75.3373 51.1319C75.5271 50.9281 75.7411 50.7752 75.9839 50.6755C76.2266 50.5759 76.4782 50.5271 76.7342 50.5271C77.3035 50.5271 77.7581 50.7132 78.098 51.0876C78.4378 51.4619 78.6055 52.0356 78.6055 52.8132C78.6055 52.8619 78.6055 52.9084 78.6011 52.9571C78.5989 53.0059 78.5945 53.0502 78.5879 53.0923H75.3218C75.3395 53.6638 75.4807 54.1046 75.7455 54.4103C76.0103 54.7182 76.4296 54.871 77.0056 54.871C77.3234 54.871 77.5749 54.84 77.7603 54.7802C77.9457 54.7204 78.0803 54.6694 78.1642 54.6274L78.2723 55.1324C78.1884 55.1811 78.0317 55.2387 77.8 55.303C77.5683 55.3672 77.2969 55.4027 76.9857 55.4027C76.5775 55.4027 76.231 55.3428 75.9419 55.221C75.655 55.1014 75.4167 54.933 75.2313 54.716C75.046 54.4989 74.9114 54.2419 74.8275 53.9429C74.7436 53.646 74.7017 53.3182 74.7017 52.9638H74.7039ZM78.0053 52.5939C77.9942 52.1065 77.8795 51.7277 77.6632 51.4553C77.447 51.185 77.1424 51.0499 76.7452 51.0499C76.5356 51.0499 76.348 51.092 76.1825 51.1762C76.017 51.2603 75.8735 51.3733 75.7499 51.5151C75.6264 51.6568 75.5315 51.8208 75.4631 52.0068C75.3946 52.1929 75.3527 52.3901 75.3417 52.5939H78.0053Z" fill="#6D6D6D"></path><path d="M79.9141 50.7974C80.0884 50.7486 80.3223 50.6955 80.6158 50.6357C80.9093 50.5758 81.2691 50.5448 81.695 50.5448C82.0481 50.5448 82.3438 50.5958 82.5799 50.6977C82.816 50.7996 83.0058 50.9458 83.147 51.1363C83.2883 51.3268 83.3876 51.5527 83.4494 51.8185C83.5089 52.0844 83.5398 52.3745 83.5398 52.6935V55.303H82.955V52.884C82.955 52.554 82.933 52.2726 82.8866 52.0445C82.8425 51.8163 82.7675 51.628 82.6615 51.4841C82.5556 51.3401 82.4188 51.236 82.2489 51.1717C82.0789 51.1075 81.8627 51.0765 81.6067 51.0765C81.3308 51.0765 81.0925 51.092 80.8917 51.1208C80.6909 51.1518 80.5607 51.1784 80.5011 51.2027V55.303H79.9163V50.7974H79.9141Z" fill="#6D6D6D"></path><path d="M85.5789 50.6356H87.4326V51.1318H85.5789V53.615C85.5789 53.8808 85.601 54.0957 85.6473 54.2596C85.6915 54.4257 85.7577 54.5542 85.8415 54.6428C85.9254 54.7337 86.0269 54.7935 86.1483 54.8245C86.2675 54.8555 86.3999 54.8688 86.5433 54.8688C86.7883 54.8688 86.9869 54.84 87.1369 54.7824C87.287 54.7248 87.4039 54.6716 87.4878 54.6251L87.6312 55.1124C87.5474 55.1678 87.3995 55.2276 87.1899 55.2985C86.9802 55.3672 86.7529 55.4026 86.5058 55.4026C86.2189 55.4026 85.9762 55.365 85.782 55.2897C85.5878 55.2143 85.4311 55.0992 85.3141 54.9463C85.1972 54.7935 85.1155 54.603 85.067 54.3726C85.0184 54.1444 84.9941 53.8742 84.9941 53.5596V49.2623L85.5789 49.1537V50.6334V50.6356Z" fill="#6D6D6D"></path><path d="M93.1901 55.4381C92.7885 55.4381 92.4155 55.365 92.069 55.221C91.7248 55.077 91.4247 54.8666 91.1687 54.5897C90.9127 54.3128 90.7119 53.9717 90.5662 53.5641C90.4184 53.1587 90.3456 52.6935 90.3456 52.1685C90.3456 51.6435 90.425 51.1806 90.5839 50.773C90.7428 50.3654 90.9546 50.0243 91.2172 49.7474C91.482 49.4705 91.7866 49.2623 92.1353 49.1205C92.4839 48.9787 92.8458 48.9078 93.2232 48.9078C93.4571 48.9078 93.669 48.9233 93.8609 48.9521C94.0529 48.9832 94.2207 49.0208 94.3641 49.0651C94.5075 49.1094 94.6311 49.1559 94.7326 49.2002C94.8341 49.2445 94.9114 49.2866 94.9665 49.3221L94.7679 49.8537C94.6179 49.7629 94.4281 49.6743 94.1964 49.5879C93.9647 49.5015 93.68 49.4572 93.3379 49.4572C92.9473 49.4572 92.6075 49.5236 92.3162 49.6566C92.0249 49.7895 91.78 49.9755 91.5836 50.217C91.3849 50.4584 91.2371 50.7442 91.1378 51.0742C91.0385 51.4065 90.9899 51.772 90.9899 52.1752C90.9899 52.5783 91.0385 52.966 91.1378 53.3005C91.2371 53.6349 91.3827 53.9185 91.5747 54.1533C91.7667 54.3881 92.0028 54.5697 92.2809 54.696C92.559 54.8223 92.8789 54.8865 93.2386 54.8865C93.6337 54.8865 93.9647 54.8488 94.2317 54.7735C94.4987 54.6982 94.6995 54.6207 94.8386 54.5432L95.0107 55.0659C94.9688 55.0969 94.8959 55.1302 94.7944 55.17C94.6929 55.2099 94.5627 55.2498 94.4082 55.2919C94.2516 55.334 94.0728 55.3694 93.8676 55.396C93.6623 55.4226 93.435 55.4359 93.1835 55.4359L93.1901 55.4381Z" fill="#6D6D6D"></path><path d="M100.007 52.9726C100.007 53.3403 99.9539 53.6748 99.8501 53.9739C99.7442 54.2751 99.5986 54.5299 99.4088 54.7403C99.219 54.9507 98.9961 55.1147 98.7379 55.2321C98.4797 55.3495 98.1951 55.4071 97.8839 55.4071C97.5728 55.4071 97.2881 55.3495 97.0299 55.2321C96.7717 55.1147 96.5488 54.9507 96.359 54.7403C96.1692 54.5299 96.0236 54.2729 95.9177 53.9739C95.8117 53.6726 95.761 53.3381 95.761 52.9726C95.761 52.6071 95.8139 52.2704 95.9177 51.9714C96.0236 51.6701 96.1692 51.4132 96.359 51.2005C96.5488 50.9879 96.7717 50.8217 97.0299 50.7043C97.2881 50.5869 97.5728 50.5293 97.8839 50.5293C98.1951 50.5293 98.4797 50.5869 98.7379 50.7043C98.9961 50.8217 99.219 50.9879 99.4088 51.2005C99.5986 51.4132 99.7442 51.6723 99.8501 51.9714C99.9561 52.2726 100.007 52.6071 100.007 52.9726ZM99.3867 52.9726C99.3867 52.39 99.2521 51.9249 98.9829 51.5771C98.7137 51.2293 98.3473 51.0587 97.8861 51.0587C97.4249 51.0587 97.0586 51.2315 96.7893 51.5771C96.5201 51.9226 96.3855 52.3878 96.3855 52.9726C96.3855 53.5574 96.5201 54.0204 96.7893 54.3637C97.0586 54.7071 97.4249 54.8776 97.8861 54.8776C98.3473 54.8776 98.7137 54.7071 98.9829 54.3637C99.2521 54.0204 99.3867 53.5574 99.3867 52.9726Z" fill="#6D6D6D"></path><path d="M102.103 54.9153C102.103 55.0549 102.059 55.1723 101.973 55.2675C101.887 55.3628 101.766 55.4115 101.609 55.4115C101.452 55.4115 101.331 55.3628 101.245 55.2675C101.159 55.1723 101.115 55.0549 101.115 54.9153C101.115 54.7758 101.159 54.6606 101.245 54.5631C101.331 54.4679 101.452 54.4191 101.609 54.4191C101.766 54.4191 101.887 54.4679 101.973 54.5631C102.059 54.6606 102.103 54.7758 102.103 54.9153Z" fill="#6D6D6D"></path><path d="M125.897 25.6845C125.603 25.7952 125.277 25.8196 124.959 25.7487C124.295 25.5981 123.792 25.0554 123.692 24.382L122.659 17.6524C122.523 16.7464 123.138 15.9002 124.041 15.7629C124.943 15.6233 125.661 16.2303 125.908 17.1385L126.455 19.0479L127.788 17.5461C128.34 16.8062 129.331 16.6246 130.081 17.1385C130.838 17.6568 131.028 18.6891 130.516 19.4466L126.687 25.0665C126.49 25.3589 126.208 25.5693 125.897 25.6867" fill="#743060"></path><path d="M125.897 25.6845C125.603 25.7952 125.277 25.8196 124.959 25.7487C124.295 25.5981 123.792 25.0554 123.692 24.382L122.659 17.6524C122.523 16.7464 123.138 15.9002 124.041 15.7629C124.943 15.6233 125.661 16.2303 125.908 17.1385L126.455 19.0479L127.788 17.5461C128.34 16.8062 129.331 16.6246 130.081 17.1385C130.838 17.6568 131.028 18.6891 130.516 19.4466L126.687 25.0665C126.49 25.3589 126.208 25.5693 125.897 25.6867" fill="#743060"></path><mask id="mask0_698_328" style="mask-type:luminance" maskUnits="userSpaceOnUse" x="122" y="15" width="9" height="11"><path d="M124.039 15.7629C123.136 15.9002 122.52 16.7486 122.657 17.6524L123.69 24.382C123.789 25.0576 124.292 25.5981 124.957 25.7487C125.274 25.8196 125.601 25.7952 125.895 25.6845C126.206 25.5671 126.488 25.3566 126.685 25.0642L130.513 19.4444C131.025 18.6869 130.836 17.6568 130.079 17.1363C129.328 16.6246 128.337 16.8062 127.788 17.5461L126.453 19.0479L125.906 17.1363C125.685 16.3167 125.076 15.7407 124.295 15.7407C124.211 15.7407 124.127 15.7474 124.039 15.7607" fill="white"></path></mask><g mask="url(#mask0_698_328)"><g style="mix-blend-mode:multiply"><mask id="mask1_698_328" style="mask-type:luminance" maskUnits="userSpaceOnUse" x="127" y="13" width="10" height="10"><path d="M136.646 13.3373H127.117V22.8956H136.646V13.3373Z" fill="white"></path></mask><g mask="url(#mask1_698_328)"><path d="M127.382 17.6267C127.331 17.702 127.289 17.7928 127.251 17.8792C126.889 18.7188 127.276 19.6956 128.112 20.0611L134.34 22.7614C134.796 22.9608 135.313 22.9386 135.739 22.7193C135.893 22.6396 136.037 22.5399 136.162 22.4114C136.641 21.9307 136.78 21.2042 136.504 20.5817L133.799 14.3372C133.433 13.4977 132.464 13.1145 131.625 13.48C130.782 13.8477 130.522 14.6141 130.771 15.6597L131.327 17.5625L128.214 16.6609C128.214 16.6609 128.099 16.6077 127.993 16.7562L127.382 17.6311V17.6267Z" fill="#743060"></path></g></g></g><path d="M127.87 17.4486C127.814 17.515 127.764 17.6036 127.715 17.6812C127.261 18.4764 127.536 19.4932 128.326 19.9473L134.21 23.332C134.642 23.5823 135.156 23.6178 135.609 23.4494C135.77 23.3874 135.924 23.3032 136.063 23.1902C136.593 22.7649 136.812 22.0583 136.613 21.4093L134.618 14.899C134.351 14.024 133.426 13.5344 132.555 13.8003C131.676 14.0683 131.33 14.8037 131.46 15.8714L131.802 17.8229L128.81 16.5758C128.81 16.5758 128.699 16.5094 128.58 16.6445L127.87 17.4464V17.4486Z" fill="#83325A"></path><mask id="mask2_698_328" style="mask-type:luminance" maskUnits="userSpaceOnUse" x="127" y="13" width="10" height="11"><path d="M132.555 13.8025C131.676 14.0705 131.33 14.8059 131.46 15.8736L131.802 17.8252L128.808 16.578C128.808 16.578 128.699 16.5116 128.58 16.6489L127.87 17.4486C127.814 17.515 127.764 17.6036 127.715 17.6812C127.261 18.4764 127.536 19.4932 128.326 19.9473L134.21 23.332C134.642 23.5823 135.156 23.6177 135.609 23.4494C135.77 23.3874 135.924 23.3032 136.063 23.1902C136.593 22.7649 136.812 22.0583 136.613 21.4092L134.618 14.899C134.402 14.1857 133.749 13.7271 133.04 13.7271C132.881 13.7271 132.716 13.7515 132.555 13.8002" fill="white"></path></mask><g mask="url(#mask2_698_328)"><g style="mix-blend-mode:multiply"><mask id="mask3_698_328" style="mask-type:luminance" maskUnits="userSpaceOnUse" x="130" y="9" width="11" height="9"><path d="M140.53 9.09308H130.73V17.3866H140.53V9.09308Z" fill="white"></path></mask><g mask="url(#mask3_698_328)"><path d="M131.294 16.2246C131.323 16.3176 131.343 16.4062 131.387 16.4926C131.802 17.2989 132.777 17.6157 133.583 17.2192C133.591 17.2148 133.605 17.2081 133.616 17.2037L139.638 14.0737C140.238 13.7614 140.591 13.1101 140.518 12.4345C140.452 11.7566 139.976 11.1896 139.325 11.0057L132.79 9.1605C131.914 8.91241 131.04 9.4086 130.793 10.2902C130.548 11.1719 131.009 12.0335 131.901 12.3348L133.726 13.1079L131.045 14.9708C131.045 14.9708 130.956 15.0196 130.979 15.1347L131.29 16.2224L131.294 16.2246Z" fill="#83325A"></path></g></g></g><path d="M131.436 15.7208C131.451 15.8138 131.469 15.9046 131.502 15.9977C131.835 16.8372 132.775 17.2514 133.614 16.9413C133.623 16.9369 133.634 16.9325 133.647 16.9258L139.954 14.4227C140.587 14.1724 140.998 13.561 140.998 12.8788C140.998 12.2009 140.581 11.5873 139.952 11.337L133.64 8.84499C132.789 8.5105 131.875 8.91366 131.537 9.76649C131.202 10.6193 131.575 11.5231 132.435 11.913L134.17 12.8633L131.319 14.4449C131.319 14.4449 131.222 14.4869 131.235 14.6044L131.434 15.7186L131.436 15.7208Z" fill="#8B3356"></path><mask id="mask4_698_328" style="mask-type:luminance" maskUnits="userSpaceOnUse" x="131" y="8" width="10" height="10"><path d="M131.54 9.76649C131.204 10.6193 131.577 11.5231 132.438 11.913L134.17 12.8633L131.321 14.4449C131.321 14.4449 131.226 14.487 131.237 14.6044L131.436 15.7186C131.451 15.8116 131.467 15.9024 131.502 15.9955C131.835 16.835 132.775 17.2492 133.614 16.9391C133.623 16.9325 133.634 16.9303 133.647 16.9236L139.954 14.4205C140.587 14.1702 140.998 13.5588 140.998 12.8765C140.996 12.1987 140.581 11.5851 139.952 11.3348L133.64 8.84277C133.437 8.76303 133.232 8.72537 133.031 8.72537C132.387 8.72537 131.796 9.11524 131.537 9.76427" fill="white"></path></mask><g mask="url(#mask4_698_328)"><g style="mix-blend-mode:multiply"><mask id="mask5_698_328" style="mask-type:luminance" maskUnits="userSpaceOnUse" x="127" y="2" width="10" height="11"><path d="M136.286 2.32361H127.296V12.2873H136.286V2.32361Z" fill="white"></path></mask><g mask="url(#mask5_698_328)"><path d="M132.804 12.2477C133.171 12.3296 133.537 12.2853 133.853 12.1369C134.307 11.9265 134.658 11.5144 134.775 10.9895L136.247 4.34181C136.397 3.67949 136.121 2.99058 135.556 2.60957C134.998 2.22857 134.259 2.22857 133.703 2.61622L128.638 6.09399C128.311 6.23797 128.166 6.39082 127.947 6.56803C127.237 7.14175 127.069 8.01673 127.645 8.73001L127.815 8.90057C128.442 9.53632 129.24 9.65594 129.951 9.16639L131.739 8.26261L131.436 11.4059C131.436 11.4059 131.388 11.6141 131.533 11.685L132.802 12.2499L132.804 12.2477Z" fill="#8B3356"></path></g></g></g><path d="M132.555 11.9728C132.914 12.0835 133.283 12.0636 133.607 11.9418C134.077 11.769 134.457 11.3858 134.616 10.8696L136.597 4.35933C136.792 3.70586 136.573 3.00366 136.044 2.57614C135.516 2.15305 134.779 2.09767 134.196 2.4388L128.878 5.50899C128.538 5.63082 128.382 5.77037 128.152 5.93208C127.4 6.44821 127.168 7.30768 127.684 8.06304L127.839 8.24247C128.415 8.92473 129.203 9.10859 129.948 8.67664L131.8 7.91463L131.257 11.0247C131.257 11.0247 131.193 11.2307 131.33 11.3104L132.555 11.9728Z" fill="#963350"></path><mask id="mask6_698_328" style="mask-type:luminance" maskUnits="userSpaceOnUse" x="127" y="2" width="10" height="11"><path d="M134.196 2.4388L128.878 5.50898C128.538 5.63082 128.382 5.77037 128.152 5.93208C127.4 6.4482 127.168 7.30768 127.684 8.06304L127.839 8.24247C128.415 8.92473 129.203 9.10859 129.948 8.67663L131.8 7.91463L131.257 11.0247C131.257 11.0247 131.193 11.2307 131.33 11.3104L132.555 11.9728C132.914 12.0835 133.283 12.0636 133.607 11.9418C134.077 11.769 134.457 11.3857 134.616 10.8696L136.597 4.35933C136.794 3.70807 136.575 3.00366 136.044 2.57614C135.746 2.3369 135.384 2.21729 135.017 2.21729C134.735 2.21729 134.45 2.29038 134.196 2.4388Z" fill="white"></path></mask><g mask="url(#mask6_698_328)"><g style="mix-blend-mode:multiply"><mask id="mask7_698_328" style="mask-type:luminance" maskUnits="userSpaceOnUse" x="123" y="0" width="9" height="11"><path d="M131.003 0.666687H123.105V10.7367H131.003V0.666687Z" fill="white"></path></mask><g mask="url(#mask7_698_328)"><path d="M130.521 8.49328C131.185 7.86861 131.139 6.70788 130.515 6.04334L125.96 1.18775C125.496 0.693774 124.773 0.534284 124.141 0.78681C123.515 1.03712 123.102 1.65293 123.102 2.33076L123.129 9.1401C123.129 10.0572 123.883 10.7394 124.797 10.7372C125.708 10.7328 126.302 10.0948 126.417 9.12681L126.662 7.12654L128.109 8.31829L129.149 9.17333C129.149 9.17333 129.239 9.29295 129.396 9.18662L130.521 8.4955V8.49328Z" fill="#963350"></path></g></g></g><path d="M130.054 8.64118C130.807 8.12506 130.937 6.97318 130.418 6.21782L126.663 0.717628C126.281 0.157198 125.594 -0.110834 124.932 0.0397953C124.275 0.19264 123.772 0.735349 123.67 1.40875L122.651 8.13835C122.514 9.04656 123.156 9.83736 124.056 9.9747C124.959 10.112 125.643 9.56933 125.906 8.63011L126.453 6.69186L127.695 8.09405L128.596 9.09972C128.596 9.09972 128.664 9.23041 128.834 9.14845L130.052 8.63897L130.054 8.64118Z" fill="#A32D4E"></path><mask id="mask8_698_328" style="mask-type:luminance" maskUnits="userSpaceOnUse" x="122" y="-1" width="9" height="11"><path d="M124.93 0.042014C124.273 0.194859 123.769 0.737568 123.668 1.41097L122.648 8.14057C122.512 9.04877 123.154 9.83958 124.054 9.97692C124.957 10.1143 125.641 9.57155 125.903 8.63233L126.451 6.69408L127.693 8.09626L128.593 9.10194C128.593 9.10194 128.662 9.23263 128.832 9.15067L130.05 8.64119C130.802 8.12506 130.933 6.97319 130.414 6.21782L126.658 0.717632C126.347 0.261313 125.835 -0.00228882 125.299 -0.00228882C125.175 -0.00228882 125.052 0.011002 124.928 0.0397989" fill="white"></path></mask><g mask="url(#mask8_698_328)"><g style="mix-blend-mode:multiply"><mask id="mask9_698_328" style="mask-type:luminance" maskUnits="userSpaceOnUse" x="115" y="6" width="11" height="9"><path d="M125.998 6.38174H115.957V14.5157H125.998V6.38174Z" fill="white"></path></mask><g mask="url(#mask9_698_328)"><path d="M125.998 7.86569C125.905 6.9597 125.089 6.29515 124.184 6.3904L117.438 7.10147C116.765 7.17235 116.202 7.64861 116.019 8.30429C115.834 8.95997 116.072 9.66217 116.61 10.072L122.026 14.1788C122.573 14.5975 123.297 14.6152 123.855 14.2852C124.036 14.1788 124.087 14.0194 124.222 13.8444C124.771 13.1134 124.74 12.0855 124.014 11.534L122.582 10.1141L125.682 9.38971C125.682 9.38971 125.877 9.37863 125.881 9.11281L125.996 7.86569H125.998Z" fill="#A32D4E"></path></g></g></g><path d="M125.93 8.51051C125.996 7.59565 125.31 6.80263 124.401 6.73839L117.632 6.25106C116.957 6.1979 116.324 6.57004 116.028 7.18364C115.732 7.79723 115.845 8.52823 116.306 9.02885L120.914 14.0262C121.382 14.5357 122.095 14.6819 122.699 14.4559C122.898 14.3806 122.975 14.2366 123.141 14.086C123.809 13.4658 123.957 12.4468 123.337 11.7778L122.176 10.1253L125.354 9.95921C125.354 9.95921 125.546 9.98136 125.599 9.71776L125.93 8.51494V8.51051Z" fill="#B02D48"></path><mask id="mask10_698_328" style="mask-type:luminance" maskUnits="userSpaceOnUse" x="115" y="6" width="11" height="9"><path d="M116.028 7.1814C115.732 7.795 115.845 8.52599 116.306 9.02661L120.914 14.024C121.382 14.5312 122.095 14.6774 122.699 14.4515C122.898 14.3762 122.975 14.2322 123.141 14.0816C123.809 13.4613 123.957 12.4424 123.339 11.7734L122.178 10.1209L125.356 9.95476C125.356 9.95476 125.548 9.97912 125.601 9.71331L125.932 8.51049C125.998 7.59563 125.312 6.80261 124.403 6.73837L117.635 6.25104C117.593 6.24661 117.549 6.24661 117.507 6.24661C116.88 6.24661 116.306 6.6099 116.03 7.18362" fill="white"></path></mask><g mask="url(#mask10_698_328)"><g style="mix-blend-mode:multiply"><mask id="mask11_698_328" style="mask-type:luminance" maskUnits="userSpaceOnUse" x="116" y="10" width="11" height="10"><path d="M126.495 10.8563H116.617V19.6881H126.495V10.8563Z" fill="white"></path></mask><g mask="url(#mask11_698_328)"><path d="M123.401 11.3316C123.342 11.2718 123.28 11.2186 123.214 11.1677C122.472 10.6316 121.439 10.7955 120.905 11.5398L116.931 17.06C116.534 17.6093 116.514 18.3492 116.878 18.9207C117.242 19.4922 117.922 19.7824 118.588 19.6517L125.248 18.347C125.403 18.3159 125.548 18.265 125.687 18.1963C126.325 17.8663 126.61 17.1176 126.464 16.3733C126.285 15.4761 125.511 14.9511 124.619 15.0752L122.631 15.186L124.14 12.4015C124.14 12.4015 124.249 12.2797 124.129 12.1313L123.406 11.3272L123.401 11.3316Z" fill="#B02D48"></path></g></g></g><path d="M123.416 11.8642C123.368 11.8 123.308 11.7357 123.244 11.6804C122.576 11.0601 121.532 11.1022 120.912 11.7734L116.311 16.7796C115.852 17.2758 115.746 18.0112 116.041 18.6226C116.333 19.234 116.97 19.6039 117.648 19.5552L124.416 19.0524C124.575 19.0413 124.725 19.0081 124.866 18.9549C125.542 18.7024 125.91 17.9957 125.857 17.2404C125.786 16.3277 125.078 15.7119 124.173 15.7274L122.187 15.6034L124.019 13.0161C124.019 13.0161 124.145 12.912 124.039 12.7458L123.416 11.862V11.8642Z" fill="#CA0032"></path><mask id="mask12_698_328" style="mask-type:luminance" maskUnits="userSpaceOnUse" x="115" y="11" width="11" height="9"><path d="M120.912 11.7734L116.311 16.7796C115.852 17.2758 115.746 18.0112 116.041 18.6226C116.333 19.234 116.97 19.6039 117.648 19.5552L124.416 19.0523C124.575 19.0413 124.725 19.0058 124.866 18.9549C125.542 18.7023 125.91 17.9957 125.859 17.2403C125.789 16.3277 125.08 15.7119 124.176 15.7274L122.189 15.6034L124.021 13.0161C124.021 13.0161 124.147 12.912 124.041 12.7458L123.419 11.8642C123.37 11.8 123.31 11.7357 123.246 11.6781C122.929 11.3857 122.529 11.2395 122.128 11.2395C121.682 11.2395 121.238 11.419 120.914 11.7734" fill="white"></path></mask><g mask="url(#mask12_698_328)"><g style="mix-blend-mode:multiply"><mask id="mask13_698_328" style="mask-type:luminance" maskUnits="userSpaceOnUse" x="122" y="15" width="6" height="11"><path d="M127.245 15.2844H122.432V25.2658H127.245V15.2844Z" fill="white"></path></mask><g mask="url(#mask13_698_328)"><path d="M123.733 15.3059C122.842 15.5097 122.266 16.4423 122.469 17.3372L123.98 23.9738C124.186 24.8687 125.068 25.4247 125.958 25.2209C126.07 25.1943 126.176 25.1589 126.275 25.1124C126.977 24.7912 127.379 24.0136 127.2 23.2339L125.699 16.6439L125.245 15.4078C125.245 15.4078 125.201 15.2616 125.035 15.2838L123.731 15.3037L123.733 15.3059Z" fill="#A0203A"></path></g></g></g><path d="M124.063 15.7186C123.158 15.8603 122.52 16.7486 122.657 17.6546L123.69 24.3842C123.829 25.288 124.672 25.9126 125.572 25.7709C125.685 25.7554 125.795 25.7244 125.897 25.6889C126.618 25.4209 127.075 24.6744 126.952 23.8814L125.93 17.2027L125.564 15.9379C125.564 15.9379 125.533 15.7872 125.367 15.7983L124.063 15.723V15.7186Z" fill="#743060"></path><path d="M11.3164 20.14H9.3104L0.00662034 43.2195L0 43.2395H2.38332L4.67175 36.913H15.8822L18.1441 43.2284V43.2395H20.6665L11.3208 20.1488L11.3164 20.14ZM15.1628 34.9548H5.39337L10.2527 22.7871L15.1628 34.9548Z" fill="#CA0032"></path><path d="M35.2555 17.7787V27.0158C34.8848 26.7367 34.2823 26.4332 33.468 26.1142C32.6361 25.7952 31.6474 25.6313 30.5286 25.6313C29.2972 25.6313 28.185 25.8573 27.225 26.3003C26.2695 26.7389 25.4464 27.3658 24.7799 28.1699C24.1201 28.9673 23.6125 29.9265 23.2683 31.0185C22.9307 32.104 22.7563 33.3201 22.7563 34.6359C22.7563 36.0336 22.9615 37.3029 23.3698 38.4038C23.7781 39.507 24.3584 40.4617 25.0955 41.237C25.8348 42.0123 26.7307 42.6148 27.7547 43.0224C28.783 43.4322 29.9394 43.6404 31.195 43.6404C32.7067 43.6404 33.98 43.5407 34.9753 43.3391C35.9639 43.1442 36.7914 42.9316 37.4336 42.7078H37.4424V17.3777L35.2688 17.7787H35.2577H35.2555ZM31.2259 41.6446C29.3811 41.6446 27.8783 41.0354 26.7616 39.8348C25.6406 38.6386 25.0712 36.8887 25.0712 34.6337C25.0712 33.6811 25.1705 32.7685 25.3691 31.9268C25.5633 31.0806 25.8833 30.3319 26.3269 29.6983C26.7682 29.0692 27.353 28.562 28.0636 28.1898C28.7742 27.8155 29.6702 27.6227 30.725 27.6227C31.2304 27.6227 31.7203 27.6737 32.1815 27.7734C32.6272 27.8664 33.062 27.9949 33.4724 28.1544C33.8652 28.305 34.2161 28.4733 34.514 28.6528C34.8186 28.8366 35.0635 28.9983 35.2533 29.1445V41.1772C34.9179 41.2901 34.4258 41.3965 33.7924 41.4917C33.137 41.5914 32.2742 41.6424 31.2259 41.6424" fill="#CA0032"></path><path d="M48.3197 40.5791L43.2419 26.0101L43.2374 26.0013H40.9203L47.1655 43.1642L47.1699 43.173H49.198L55.5778 26.019L55.5844 26.0013H53.3997L48.3197 40.5791Z" fill="#743060"></path><path d="M65.5127 25.6003C64.5638 25.6003 63.6303 25.7864 62.7432 26.1519C61.8472 26.5174 61.0417 27.0822 60.351 27.8354C59.6581 28.5819 59.0865 29.5278 58.6518 30.653C58.2237 31.7717 58.0074 33.1008 58.0074 34.6004C58.0074 35.8919 58.1641 37.108 58.4753 38.2155C58.7798 39.3032 59.2829 40.2623 59.9692 41.0686C60.6533 41.8661 61.5383 42.493 62.5953 42.936C63.6987 43.4012 64.7602 43.6271 65.8393 43.6271C66.0401 43.6271 66.2453 43.6183 66.4483 43.6028C68.7522 43.4189 70.1337 42.5705 70.8884 41.8905C71.7071 41.155 71.9852 40.4528 71.9874 40.4462L71.9918 40.4373L70.5353 39.3408L70.5265 39.3541C69.9726 40.5126 68.9111 41.0642 68.1167 41.3256C67.256 41.6069 66.5168 41.6136 66.5101 41.6136C64.4049 41.6136 62.8469 41.0421 61.8781 39.919C60.9115 38.7959 60.3907 37.17 60.3267 35.0855H72.3603V35.0745C72.3868 34.9194 72.4 34.7555 72.4155 34.5738C72.4265 34.359 72.4309 34.1951 72.4309 34.04C72.4309 31.1869 71.7976 29.0449 70.553 27.6737C69.3083 26.3003 67.6135 25.6047 65.5171 25.6047M60.3907 33.227C60.4415 32.4739 60.5938 31.7518 60.8365 31.0828C61.0881 30.4005 61.4456 29.7891 61.898 29.2708C62.3482 28.7569 62.8822 28.3382 63.4846 28.0281C64.0893 27.7202 64.7866 27.5629 65.5524 27.5629C67.0023 27.5629 68.1365 28.0658 68.9244 29.0559C69.71 30.0439 70.1315 31.4461 70.1822 33.227H60.3907Z" fill="#743060"></path><path d="M89.1517 27.8531C88.6375 27.1576 87.9336 26.6126 87.0597 26.2339C86.1858 25.8595 85.0824 25.6668 83.7848 25.6668C82.2224 25.6668 80.8829 25.7797 79.8016 26.0013C78.7468 26.2139 77.8773 26.4177 77.2152 26.5971H77.2064V43.2063H79.3889V28.1189C79.6206 28.0303 80.1017 27.9307 80.8211 27.8221C81.567 27.7136 82.4519 27.6582 83.4516 27.6582C84.3961 27.6582 85.1906 27.7756 85.8195 28.0082C86.4506 28.2363 86.9471 28.6129 87.34 29.1512C87.7239 29.674 88.002 30.3651 88.1675 31.2068C88.333 32.053 88.4169 33.0941 88.4169 34.3014V43.204H90.5994V33.5992C90.5994 32.4362 90.4868 31.3486 90.2683 30.3695C90.0499 29.3971 89.6747 28.5509 89.1539 27.8509" fill="#743060"></path><path d="M105.153 40.7076L105.138 40.7164C104.835 40.8914 104.398 41.0886 103.847 41.2968C103.302 41.505 102.569 41.6113 101.666 41.6113C101.13 41.6113 100.653 41.5582 100.208 41.4452C99.7708 41.3367 99.3934 41.1152 99.0867 40.7829C98.7799 40.4484 98.5416 39.9744 98.3805 39.3741C98.2172 38.7649 98.1311 37.9652 98.1311 36.9972V27.8575H104.963V25.999H98.1311V20.5365L95.9574 20.9352L95.9464 20.9397V36.7956C95.9464 37.9475 96.0347 38.9576 96.2112 39.7949C96.39 40.6389 96.6967 41.3522 97.127 41.9126C97.5574 42.4797 98.14 42.9072 98.8594 43.1841C99.5699 43.4588 100.468 43.5983 101.532 43.5983C102.434 43.5983 103.286 43.4698 104.059 43.2151C104.822 42.9648 105.369 42.7344 105.683 42.5306L105.692 42.5262L105.16 40.7209L105.155 40.7054L105.153 40.7076Z" fill="#743060"></path><path d="M119.983 29.4392C119.764 28.6683 119.407 27.9882 118.919 27.419C118.438 26.8563 117.793 26.4089 117.006 26.0854C116.222 25.7642 115.256 25.6025 114.135 25.6025C113.014 25.6025 112.076 25.6801 111.294 25.8373C110.511 25.9902 109.924 26.1608 109.551 26.338H109.542L109.842 28.2496V28.2651L109.86 28.2607C110.127 28.1566 110.546 28.0237 111.215 27.8265C111.831 27.6515 112.782 27.5607 114.033 27.5607C114.911 27.5607 115.629 27.7003 116.165 27.975C116.703 28.2518 117.127 28.6196 117.421 29.0692C117.712 29.5167 117.908 30.0306 117.999 30.5955C118.087 31.1648 118.131 31.7496 118.131 32.341V33.3865C118.034 33.3422 117.88 33.2935 117.665 33.2448C117.407 33.1827 117.129 33.1274 116.838 33.0786C116.547 33.0277 116.222 32.9834 115.84 32.9435C115.492 32.9125 115.163 32.8948 114.861 32.8948C113.821 32.8948 112.85 32.9945 111.972 33.1938C111.087 33.3932 110.315 33.7144 109.677 34.1441C109.041 34.5739 108.536 35.1299 108.181 35.7966C107.828 36.4589 107.649 37.2653 107.649 38.2C107.649 39.1348 107.812 40.0142 108.134 40.6854C108.448 41.3544 108.894 41.917 109.463 42.3556C110.021 42.7854 110.694 43.1066 111.46 43.3082C112.215 43.5075 113.058 43.6072 113.965 43.6072C114.662 43.6072 115.362 43.5806 116.041 43.5252C116.69 43.4721 117.308 43.399 117.882 43.3104C118.486 43.2107 118.948 43.1332 119.34 43.0578C119.786 42.9759 120.093 42.9072 120.305 42.8385H120.314V31.9755C120.314 31.0606 120.201 30.2078 119.98 29.4436M114.792 34.7865C115.715 34.7865 116.45 34.8485 116.977 34.9704C117.5 35.09 117.886 35.2052 118.131 35.3159V41.3544C117.674 41.443 117.136 41.5183 116.531 41.5671C115.9 41.6246 115.161 41.6512 114.331 41.6512C113.656 41.6512 113.038 41.5914 112.491 41.4674C111.952 41.3478 111.486 41.1484 111.107 40.887C110.721 40.6212 110.423 40.2646 110.22 39.826C110.008 39.3874 109.902 38.8579 109.902 38.2023C109.902 37.4713 110.056 36.8798 110.363 36.4457C110.677 36.0026 111.076 35.6526 111.553 35.4023C112.029 35.1498 112.566 34.9837 113.142 34.9039C113.713 34.8264 114.269 34.7865 114.797 34.7865" fill="#743060"></path><path d="M126.316 41.5781C126.316 41.8351 126.276 42.061 126.197 42.2582C126.111 42.4575 126.001 42.6237 125.864 42.761C125.733 42.9006 125.572 43.0047 125.389 43.0756C125.208 43.1487 125.021 43.1841 124.824 43.1841C124.628 43.1841 124.436 43.1464 124.255 43.0756C124.072 43.0025 123.915 42.8983 123.778 42.761C123.641 42.6237 123.529 42.4575 123.449 42.2582C123.368 42.061 123.326 41.8351 123.326 41.5781C123.326 41.3212 123.366 41.1041 123.449 40.9047C123.531 40.7054 123.644 40.537 123.778 40.3997C123.915 40.2645 124.07 40.1604 124.255 40.0895C124.436 40.0164 124.623 39.9788 124.824 39.9788C125.025 39.9788 125.208 40.0142 125.389 40.0895C125.575 40.1626 125.733 40.2645 125.864 40.3997C126.001 40.537 126.111 40.7054 126.197 40.9047C126.276 41.1041 126.316 41.3278 126.316 41.5781ZM126.056 41.5781C126.056 41.3788 126.023 41.1905 125.965 41.0243C125.901 40.8516 125.82 40.7098 125.707 40.5902C125.599 40.4728 125.471 40.3775 125.321 40.3133C125.164 40.249 125.001 40.218 124.824 40.218C124.648 40.218 124.48 40.2513 124.328 40.3133C124.171 40.3775 124.043 40.4728 123.937 40.5902C123.825 40.7098 123.745 40.8516 123.681 41.0243C123.622 41.1905 123.591 41.3765 123.591 41.5781C123.591 41.7797 123.622 41.9724 123.681 42.1386C123.745 42.3069 123.827 42.4531 123.937 42.5727C124.045 42.6901 124.173 42.7876 124.328 42.8496C124.48 42.9161 124.646 42.9493 124.824 42.9493C125.003 42.9493 125.164 42.9161 125.321 42.8496C125.473 42.7854 125.601 42.6901 125.707 42.5727C125.82 42.4531 125.899 42.3069 125.965 42.1386C126.025 41.9746 126.056 41.7841 126.056 41.5781ZM125.301 42.4575C125.224 42.318 125.144 42.1873 125.06 42.061C124.979 41.937 124.908 41.8351 124.844 41.7642C124.824 41.7642 124.804 41.7686 124.789 41.7686H124.46V42.4575H124.222V40.743C124.286 40.7297 124.365 40.7164 124.447 40.7098C124.531 40.6987 124.61 40.6943 124.681 40.6943C124.935 40.6943 125.122 40.7408 125.255 40.8294C125.387 40.9224 125.451 41.0598 125.451 41.2481C125.451 41.3544 125.422 41.4474 125.365 41.5338C125.305 41.618 125.219 41.6778 125.105 41.7199C125.129 41.7487 125.162 41.7863 125.202 41.8417C125.237 41.8949 125.281 41.9569 125.325 42.0256C125.369 42.0943 125.411 42.1651 125.458 42.2427C125.502 42.318 125.542 42.3867 125.572 42.4553H125.305L125.301 42.4575ZM124.46 41.567H124.679C124.756 41.567 124.824 41.5604 124.884 41.5538C124.943 41.5449 125.001 41.5272 125.045 41.5006C125.089 41.4762 125.127 41.4452 125.153 41.4009C125.177 41.361 125.188 41.3079 125.188 41.2436C125.188 41.1794 125.177 41.1285 125.149 41.0886C125.122 41.0443 125.085 41.0066 125.036 40.9845C124.988 40.9579 124.939 40.9357 124.879 40.9247C124.818 40.9158 124.758 40.9069 124.696 40.9069H124.566C124.526 40.9114 124.493 40.9136 124.46 40.9158V41.567Z" fill="#743060"></path></g><defs><clipPath id="clip0_698_328"><rect width="141" height="57" fill="white"></rect></clipPath></defs></svg> 